# Max2Obj Version 6.0 Jul 29th, 2003
#
# object Sphere01 to come ...

usemtl image

v  0.00 2.00 0.00
v  -0.00 1.85 -0.77
v  -0.29 1.85 -0.71
v  -0.54 1.85 -0.54
v  -0.71 1.85 -0.29
v  -0.77 1.85 0.00
v  -0.71 1.85 0.29
v  -0.54 1.85 0.54
v  -0.29 1.85 0.71
v  0.00 1.85 0.77
v  0.29 1.85 0.71
v  0.54 1.85 0.54
v  0.71 1.85 0.29
v  0.77 1.85 -0.00
v  0.71 1.85 -0.29
v  0.54 1.85 -0.54
v  0.29 1.85 -0.71
v  -0.00 1.41 -1.41
v  -0.54 1.41 -1.31
v  -1.00 1.41 -1.00
v  -1.31 1.41 -0.54
v  -1.41 1.41 0.00
v  -1.31 1.41 0.54
v  -1.00 1.41 1.00
v  -0.54 1.41 1.31
v  0.00 1.41 1.41
v  0.54 1.41 1.31
v  1.00 1.41 1.00
v  1.31 1.41 0.54
v  1.41 1.41 -0.00
v  1.31 1.41 -0.54
v  1.00 1.41 -1.00
v  0.54 1.41 -1.31
v  -0.00 0.77 -1.85
v  -0.71 0.77 -1.71
v  -1.31 0.77 -1.31
v  -1.71 0.77 -0.71
v  -1.85 0.77 0.00
v  -1.71 0.77 0.71
v  -1.31 0.77 1.31
v  -0.71 0.77 1.71
v  0.00 0.77 1.85
v  0.71 0.77 1.71
v  1.31 0.77 1.31
v  1.71 0.77 0.71
v  1.85 0.77 -0.00
v  1.71 0.77 -0.71
v  1.31 0.77 -1.31
v  0.71 0.77 -1.71
v  -0.00 -0.00 -2.00
v  -0.77 -0.00 -1.85
v  -1.41 -0.00 -1.41
v  -1.85 -0.00 -0.77
v  -2.00 -0.00 0.00
v  -1.85 -0.00 0.77
v  -1.41 -0.00 1.41
v  -0.77 -0.00 1.85
v  0.00 -0.00 2.00
v  0.77 -0.00 1.85
v  1.41 -0.00 1.41
v  1.85 -0.00 0.77
v  2.00 -0.00 -0.00
v  1.85 -0.00 -0.77
v  1.41 -0.00 -1.41
v  0.77 -0.00 -1.85
v  -0.00 -0.77 -1.85
v  -0.71 -0.77 -1.71
v  -1.31 -0.77 -1.31
v  -1.71 -0.77 -0.71
v  -1.85 -0.77 0.00
v  -1.71 -0.77 0.71
v  -1.31 -0.77 1.31
v  -0.71 -0.77 1.71
v  0.00 -0.77 1.85
v  0.71 -0.77 1.71
v  1.31 -0.77 1.31
v  1.71 -0.77 0.71
v  1.85 -0.77 -0.00
v  1.71 -0.77 -0.71
v  1.31 -0.77 -1.31
v  0.71 -0.77 -1.71
v  -0.00 -1.41 -1.41
v  -0.54 -1.41 -1.31
v  -1.00 -1.41 -1.00
v  -1.31 -1.41 -0.54
v  -1.41 -1.41 0.00
v  -1.31 -1.41 0.54
v  -1.00 -1.41 1.00
v  -0.54 -1.41 1.31
v  0.00 -1.41 1.41
v  0.54 -1.41 1.31
v  1.00 -1.41 1.00
v  1.31 -1.41 0.54
v  1.41 -1.41 -0.00
v  1.31 -1.41 -0.54
v  1.00 -1.41 -1.00
v  0.54 -1.41 -1.31
v  -0.00 -1.85 -0.77
v  -0.29 -1.85 -0.71
v  -0.54 -1.85 -0.54
v  -0.71 -1.85 -0.29
v  -0.77 -1.85 0.00
v  -0.71 -1.85 0.29
v  -0.54 -1.85 0.54
v  -0.29 -1.85 0.71
v  0.00 -1.85 0.77
v  0.29 -1.85 0.71
v  0.54 -1.85 0.54
v  0.71 -1.85 0.29
v  0.77 -1.85 -0.00
v  0.71 -1.85 -0.29
v  0.54 -1.85 -0.54
v  0.29 -1.85 -0.71
v  0.00 -2.00 0.00
# 114 vertices

vt  0.00 1.00 0.00
vt  0.06 1.00 0.00
vt  0.13 1.00 0.00
vt  0.19 1.00 0.00
vt  0.25 1.00 0.00
vt  0.31 1.00 0.00
vt  0.38 1.00 0.00
vt  0.44 1.00 0.00
vt  0.50 1.00 0.00
vt  0.56 1.00 0.00
vt  0.63 1.00 0.00
vt  0.69 1.00 0.00
vt  0.75 1.00 0.00
vt  0.81 1.00 0.00
vt  0.88 1.00 0.00
vt  0.94 1.00 0.00
vt  1.00 1.00 0.00
vt  0.00 0.88 0.00
vt  0.06 0.88 0.00
vt  0.13 0.88 0.00
vt  0.19 0.88 0.00
vt  0.25 0.88 0.00
vt  0.31 0.88 0.00
vt  0.38 0.88 0.00
vt  0.44 0.88 0.00
vt  0.50 0.88 0.00
vt  0.56 0.88 0.00
vt  0.63 0.88 0.00
vt  0.69 0.88 0.00
vt  0.75 0.88 0.00
vt  0.81 0.88 0.00
vt  0.88 0.88 0.00
vt  0.94 0.88 0.00
vt  1.00 0.88 0.00
vt  0.00 0.75 0.00
vt  0.06 0.75 0.00
vt  0.13 0.75 0.00
vt  0.19 0.75 0.00
vt  0.25 0.75 0.00
vt  0.31 0.75 0.00
vt  0.38 0.75 0.00
vt  0.44 0.75 0.00
vt  0.50 0.75 0.00
vt  0.56 0.75 0.00
vt  0.63 0.75 0.00
vt  0.69 0.75 0.00
vt  0.75 0.75 0.00
vt  0.81 0.75 0.00
vt  0.88 0.75 0.00
vt  0.94 0.75 0.00
vt  1.00 0.75 0.00
vt  0.00 0.63 0.00
vt  0.06 0.63 0.00
vt  0.13 0.63 0.00
vt  0.19 0.63 0.00
vt  0.25 0.63 0.00
vt  0.31 0.63 0.00
vt  0.38 0.63 0.00
vt  0.44 0.63 0.00
vt  0.50 0.63 0.00
vt  0.56 0.63 0.00
vt  0.63 0.63 0.00
vt  0.69 0.63 0.00
vt  0.75 0.63 0.00
vt  0.81 0.63 0.00
vt  0.88 0.63 0.00
vt  0.94 0.63 0.00
vt  1.00 0.63 0.00
vt  0.00 0.50 0.00
vt  0.06 0.50 0.00
vt  0.13 0.50 0.00
vt  0.19 0.50 0.00
vt  0.25 0.50 0.00
vt  0.31 0.50 0.00
vt  0.38 0.50 0.00
vt  0.44 0.50 0.00
vt  0.50 0.50 0.00
vt  0.56 0.50 0.00
vt  0.63 0.50 0.00
vt  0.69 0.50 0.00
vt  0.75 0.50 0.00
vt  0.81 0.50 0.00
vt  0.88 0.50 0.00
vt  0.94 0.50 0.00
vt  1.00 0.50 0.00
vt  0.00 0.38 0.00
vt  0.06 0.38 0.00
vt  0.13 0.38 0.00
vt  0.19 0.38 0.00
vt  0.25 0.38 0.00
vt  0.31 0.38 0.00
vt  0.38 0.38 0.00
vt  0.44 0.38 0.00
vt  0.50 0.38 0.00
vt  0.56 0.38 0.00
vt  0.63 0.38 0.00
vt  0.69 0.38 0.00
vt  0.75 0.38 0.00
vt  0.81 0.38 0.00
vt  0.88 0.38 0.00
vt  0.94 0.38 0.00
vt  1.00 0.38 0.00
vt  0.00 0.25 0.00
vt  0.06 0.25 0.00
vt  0.13 0.25 0.00
vt  0.19 0.25 0.00
vt  0.25 0.25 0.00
vt  0.31 0.25 0.00
vt  0.38 0.25 0.00
vt  0.44 0.25 0.00
vt  0.50 0.25 0.00
vt  0.56 0.25 0.00
vt  0.63 0.25 0.00
vt  0.69 0.25 0.00
vt  0.75 0.25 0.00
vt  0.81 0.25 0.00
vt  0.88 0.25 0.00
vt  0.94 0.25 0.00
vt  1.00 0.25 0.00
vt  0.00 0.13 0.00
vt  0.06 0.13 0.00
vt  0.13 0.13 0.00
vt  0.19 0.13 0.00
vt  0.25 0.13 0.00
vt  0.31 0.13 0.00
vt  0.38 0.13 0.00
vt  0.44 0.13 0.00
vt  0.50 0.13 0.00
vt  0.56 0.13 0.00
vt  0.63 0.13 0.00
vt  0.69 0.13 0.00
vt  0.75 0.13 0.00
vt  0.81 0.13 0.00
vt  0.88 0.13 0.00
vt  0.94 0.13 0.00
vt  1.00 0.13 0.00
vt  0.00 0.00 0.00
vt  0.06 0.00 0.00
vt  0.13 0.00 0.00
vt  0.19 0.00 0.00
vt  0.25 0.00 0.00
vt  0.31 0.00 0.00
vt  0.38 0.00 0.00
vt  0.44 0.00 0.00
vt  0.50 0.00 0.00
vt  0.56 0.00 0.00
vt  0.63 0.00 0.00
vt  0.69 0.00 0.00
vt  0.75 0.00 0.00
vt  0.81 0.00 0.00
vt  0.88 0.00 0.00
vt  0.94 0.00 0.00
vt  1.00 0.00 0.00
# 153 texture vertices

vn  0.00 1.00 -0.00
vn  -0.00 0.92 -0.40
vn  -0.15 0.92 -0.37
vn  -0.29 0.92 -0.29
vn  -0.37 0.92 -0.15
vn  -0.40 0.92 0.00
vn  -0.37 0.92 0.15
vn  -0.29 0.92 0.29
vn  -0.15 0.92 0.37
vn  0.00 0.92 0.40
vn  0.15 0.92 0.37
vn  0.29 0.92 0.29
vn  0.37 0.92 0.15
vn  0.40 0.92 -0.00
vn  0.37 0.92 -0.15
vn  0.29 0.92 -0.29
vn  0.15 0.92 -0.37
vn  -0.00 0.70 -0.72
vn  -0.28 0.70 -0.66
vn  -0.51 0.70 -0.51
vn  -0.66 0.70 -0.28
vn  -0.72 0.70 0.00
vn  -0.66 0.70 0.28
vn  -0.51 0.70 0.51
vn  -0.28 0.70 0.66
vn  0.00 0.70 0.72
vn  0.28 0.70 0.66
vn  0.51 0.70 0.51
vn  0.66 0.70 0.28
vn  0.72 0.70 -0.00
vn  0.66 0.70 -0.28
vn  0.51 0.70 -0.51
vn  0.28 0.70 -0.66
vn  -0.00 0.37 -0.93
vn  -0.35 0.37 -0.86
vn  -0.66 0.37 -0.66
vn  -0.86 0.37 -0.35
vn  -0.93 0.37 0.00
vn  -0.86 0.37 0.35
vn  -0.66 0.37 0.66
vn  -0.35 0.37 0.86
vn  0.00 0.37 0.93
vn  0.35 0.37 0.86
vn  0.66 0.37 0.66
vn  0.86 0.37 0.35
vn  0.93 0.37 -0.00
vn  0.86 0.37 -0.35
vn  0.66 0.37 -0.66
vn  0.35 0.37 -0.86
vn  -0.00 -0.00 -1.00
vn  -0.38 -0.00 -0.92
vn  -0.71 -0.00 -0.71
vn  -0.92 -0.00 -0.38
vn  -1.00 -0.00 0.00
vn  -0.92 -0.00 0.38
vn  -0.71 -0.00 0.71
vn  -0.38 -0.00 0.92
vn  0.00 -0.00 1.00
vn  0.38 -0.00 0.92
vn  0.71 -0.00 0.71
vn  0.92 -0.00 0.38
vn  1.00 -0.00 -0.00
vn  0.92 -0.00 -0.38
vn  0.71 -0.00 -0.71
vn  0.38 -0.00 -0.92
vn  -0.00 -0.37 -0.93
vn  -0.35 -0.37 -0.86
vn  -0.66 -0.37 -0.66
vn  -0.86 -0.37 -0.35
vn  -0.93 -0.37 0.00
vn  -0.86 -0.37 0.35
vn  -0.66 -0.37 0.66
vn  -0.35 -0.37 0.86
vn  0.00 -0.37 0.93
vn  0.35 -0.37 0.86
vn  0.66 -0.37 0.66
vn  0.86 -0.37 0.35
vn  0.93 -0.37 -0.00
vn  0.86 -0.37 -0.35
vn  0.66 -0.37 -0.66
vn  0.35 -0.37 -0.86
vn  -0.00 -0.70 -0.72
vn  -0.28 -0.70 -0.66
vn  -0.51 -0.70 -0.51
vn  -0.66 -0.70 -0.28
vn  -0.72 -0.70 0.00
vn  -0.66 -0.70 0.28
vn  -0.51 -0.70 0.51
vn  -0.28 -0.70 0.66
vn  0.00 -0.70 0.72
vn  0.28 -0.70 0.66
vn  0.51 -0.70 0.51
vn  0.66 -0.70 0.28
vn  0.72 -0.70 -0.00
vn  0.66 -0.70 -0.28
vn  0.51 -0.70 -0.51
vn  0.28 -0.70 -0.66
vn  -0.00 -0.92 -0.40
vn  -0.15 -0.92 -0.37
vn  -0.29 -0.92 -0.29
vn  -0.37 -0.92 -0.15
vn  -0.40 -0.92 0.00
vn  -0.37 -0.92 0.15
vn  -0.29 -0.92 0.29
vn  -0.15 -0.92 0.37
vn  0.00 -0.92 0.40
vn  0.15 -0.92 0.37
vn  0.29 -0.92 0.29
vn  0.37 -0.92 0.15
vn  0.40 -0.92 -0.00
vn  0.37 -0.92 -0.15
vn  0.29 -0.92 -0.29
vn  0.15 -0.92 -0.37
vn  0.00 -1.00 0.00
# 114 vertex normals

f 1/1/1 2/18/2 3/19/3
f 1/2/1 3/19/3 4/20/4
f 1/3/1 4/20/4 5/21/5
f 1/4/1 5/21/5 6/22/6
f 1/5/1 6/22/6 7/23/7
f 1/6/1 7/23/7 8/24/8
f 1/7/1 8/24/8 9/25/9
f 1/8/1 9/25/9 10/26/10
f 1/9/1 10/26/10 11/27/11
f 1/10/1 11/27/11 12/28/12
f 1/11/1 12/28/12 13/29/13
f 1/12/1 13/29/13 14/30/14
f 1/13/1 14/30/14 15/31/15
f 1/14/1 15/31/15 16/32/16
f 1/15/1 16/32/16 17/33/17
f 1/16/1 17/33/17 2/34/2
f 2/18/2 18/35/18 19/36/19
f 2/18/2 19/36/19 3/19/3
f 3/19/3 19/36/19 20/37/20
f 3/19/3 20/37/20 4/20/4
f 4/20/4 20/37/20 21/38/21
f 4/20/4 21/38/21 5/21/5
f 5/21/5 21/38/21 22/39/22
f 5/21/5 22/39/22 6/22/6
f 6/22/6 22/39/22 23/40/23
f 6/22/6 23/40/23 7/23/7
f 7/23/7 23/40/23 24/41/24
f 7/23/7 24/41/24 8/24/8
f 8/24/8 24/41/24 25/42/25
f 8/24/8 25/42/25 9/25/9
f 9/25/9 25/42/25 26/43/26
f 9/25/9 26/43/26 10/26/10
f 10/26/10 26/43/26 27/44/27
f 10/26/10 27/44/27 11/27/11
f 11/27/11 27/44/27 28/45/28
f 11/27/11 28/45/28 12/28/12
f 12/28/12 28/45/28 29/46/29
f 12/28/12 29/46/29 13/29/13
f 13/29/13 29/46/29 30/47/30
f 13/29/13 30/47/30 14/30/14
f 14/30/14 30/47/30 31/48/31
f 14/30/14 31/48/31 15/31/15
f 15/31/15 31/48/31 32/49/32
f 15/31/15 32/49/32 16/32/16
f 16/32/16 32/49/32 33/50/33
f 16/32/16 33/50/33 17/33/17
f 17/33/17 33/50/33 18/51/18
f 17/33/17 18/51/18 2/34/2
f 18/35/18 34/52/34 35/53/35
f 18/35/18 35/53/35 19/36/19
f 19/36/19 35/53/35 36/54/36
f 19/36/19 36/54/36 20/37/20
f 20/37/20 36/54/36 37/55/37
f 20/37/20 37/55/37 21/38/21
f 21/38/21 37/55/37 38/56/38
f 21/38/21 38/56/38 22/39/22
f 22/39/22 38/56/38 39/57/39
f 22/39/22 39/57/39 23/40/23
f 23/40/23 39/57/39 40/58/40
f 23/40/23 40/58/40 24/41/24
f 24/41/24 40/58/40 41/59/41
f 24/41/24 41/59/41 25/42/25
f 25/42/25 41/59/41 42/60/42
f 25/42/25 42/60/42 26/43/26
f 26/43/26 42/60/42 43/61/43
f 26/43/26 43/61/43 27/44/27
f 27/44/27 43/61/43 44/62/44
f 27/44/27 44/62/44 28/45/28
f 28/45/28 44/62/44 45/63/45
f 28/45/28 45/63/45 29/46/29
f 29/46/29 45/63/45 46/64/46
f 29/46/29 46/64/46 30/47/30
f 30/47/30 46/64/46 47/65/47
f 30/47/30 47/65/47 31/48/31
f 31/48/31 47/65/47 48/66/48
f 31/48/31 48/66/48 32/49/32
f 32/49/32 48/66/48 49/67/49
f 32/49/32 49/67/49 33/50/33
f 33/50/33 49/67/49 34/68/34
f 33/50/33 34/68/34 18/51/18
f 34/52/34 50/69/50 51/70/51
f 34/52/34 51/70/51 35/53/35
f 35/53/35 51/70/51 52/71/52
f 35/53/35 52/71/52 36/54/36
f 36/54/36 52/71/52 53/72/53
f 36/54/36 53/72/53 37/55/37
f 37/55/37 53/72/53 54/73/54
f 37/55/37 54/73/54 38/56/38
f 38/56/38 54/73/54 55/74/55
f 38/56/38 55/74/55 39/57/39
f 39/57/39 55/74/55 56/75/56
f 39/57/39 56/75/56 40/58/40
f 40/58/40 56/75/56 57/76/57
f 40/58/40 57/76/57 41/59/41
f 41/59/41 57/76/57 58/77/58
f 41/59/41 58/77/58 42/60/42
f 42/60/42 58/77/58 59/78/59
f 42/60/42 59/78/59 43/61/43
f 43/61/43 59/78/59 60/79/60
f 43/61/43 60/79/60 44/62/44
f 44/62/44 60/79/60 61/80/61
f 44/62/44 61/80/61 45/63/45
f 45/63/45 61/80/61 62/81/62
f 45/63/45 62/81/62 46/64/46
f 46/64/46 62/81/62 63/82/63
f 46/64/46 63/82/63 47/65/47
f 47/65/47 63/82/63 64/83/64
f 47/65/47 64/83/64 48/66/48
f 48/66/48 64/83/64 65/84/65
f 48/66/48 65/84/65 49/67/49
f 49/67/49 65/84/65 50/85/50
f 49/67/49 50/85/50 34/68/34
f 50/69/50 66/86/66 67/87/67
f 50/69/50 67/87/67 51/70/51
f 51/70/51 67/87/67 68/88/68
f 51/70/51 68/88/68 52/71/52
f 52/71/52 68/88/68 69/89/69
f 52/71/52 69/89/69 53/72/53
f 53/72/53 69/89/69 70/90/70
f 53/72/53 70/90/70 54/73/54
f 54/73/54 70/90/70 71/91/71
f 54/73/54 71/91/71 55/74/55
f 55/74/55 71/91/71 72/92/72
f 55/74/55 72/92/72 56/75/56
f 56/75/56 72/92/72 73/93/73
f 56/75/56 73/93/73 57/76/57
f 57/76/57 73/93/73 74/94/74
f 57/76/57 74/94/74 58/77/58
f 58/77/58 74/94/74 75/95/75
f 58/77/58 75/95/75 59/78/59
f 59/78/59 75/95/75 76/96/76
f 59/78/59 76/96/76 60/79/60
f 60/79/60 76/96/76 77/97/77
f 60/79/60 77/97/77 61/80/61
f 61/80/61 77/97/77 78/98/78
f 61/80/61 78/98/78 62/81/62
f 62/81/62 78/98/78 79/99/79
f 62/81/62 79/99/79 63/82/63
f 63/82/63 79/99/79 80/100/80
f 63/82/63 80/100/80 64/83/64
f 64/83/64 80/100/80 81/101/81
f 64/83/64 81/101/81 65/84/65
f 65/84/65 81/101/81 66/102/66
f 65/84/65 66/102/66 50/85/50
f 66/86/66 82/103/82 83/104/83
f 66/86/66 83/104/83 67/87/67
f 67/87/67 83/104/83 84/105/84
f 67/87/67 84/105/84 68/88/68
f 68/88/68 84/105/84 85/106/85
f 68/88/68 85/106/85 69/89/69
f 69/89/69 85/106/85 86/107/86
f 69/89/69 86/107/86 70/90/70
f 70/90/70 86/107/86 87/108/87
f 70/90/70 87/108/87 71/91/71
f 71/91/71 87/108/87 88/109/88
f 71/91/71 88/109/88 72/92/72
f 72/92/72 88/109/88 89/110/89
f 72/92/72 89/110/89 73/93/73
f 73/93/73 89/110/89 90/111/90
f 73/93/73 90/111/90 74/94/74
f 74/94/74 90/111/90 91/112/91
f 74/94/74 91/112/91 75/95/75
f 75/95/75 91/112/91 92/113/92
f 75/95/75 92/113/92 76/96/76
f 76/96/76 92/113/92 93/114/93
f 76/96/76 93/114/93 77/97/77
f 77/97/77 93/114/93 94/115/94
f 77/97/77 94/115/94 78/98/78
f 78/98/78 94/115/94 95/116/95
f 78/98/78 95/116/95 79/99/79
f 79/99/79 95/116/95 96/117/96
f 79/99/79 96/117/96 80/100/80
f 80/100/80 96/117/96 97/118/97
f 80/100/80 97/118/97 81/101/81
f 81/101/81 97/118/97 82/119/82
f 81/101/81 82/119/82 66/102/66
f 82/103/82 98/120/98 99/121/99
f 82/103/82 99/121/99 83/104/83
f 83/104/83 99/121/99 100/122/100
f 83/104/83 100/122/100 84/105/84
f 84/105/84 100/122/100 101/123/101
f 84/105/84 101/123/101 85/106/85
f 85/106/85 101/123/101 102/124/102
f 85/106/85 102/124/102 86/107/86
f 86/107/86 102/124/102 103/125/103
f 86/107/86 103/125/103 87/108/87
f 87/108/87 103/125/103 104/126/104
f 87/108/87 104/126/104 88/109/88
f 88/109/88 104/126/104 105/127/105
f 88/109/88 105/127/105 89/110/89
f 89/110/89 105/127/105 106/128/106
f 89/110/89 106/128/106 90/111/90
f 90/111/90 106/128/106 107/129/107
f 90/111/90 107/129/107 91/112/91
f 91/112/91 107/129/107 108/130/108
f 91/112/91 108/130/108 92/113/92
f 92/113/92 108/130/108 109/131/109
f 92/113/92 109/131/109 93/114/93
f 93/114/93 109/131/109 110/132/110
f 93/114/93 110/132/110 94/115/94
f 94/115/94 110/132/110 111/133/111
f 94/115/94 111/133/111 95/116/95
f 95/116/95 111/133/111 112/134/112
f 95/116/95 112/134/112 96/117/96
f 96/117/96 112/134/112 113/135/113
f 96/117/96 113/135/113 97/118/97
f 97/118/97 113/135/113 98/136/98
f 97/118/97 98/136/98 82/119/82
f 114/137/114 99/121/99 98/120/98
f 114/138/114 100/122/100 99/121/99
f 114/139/114 101/123/101 100/122/100
f 114/140/114 102/124/102 101/123/101
f 114/141/114 103/125/103 102/124/102
f 114/142/114 104/126/104 103/125/103
f 114/143/114 105/127/105 104/126/104
f 114/144/114 106/128/106 105/127/105
f 114/145/114 107/129/107 106/128/106
f 114/146/114 108/130/108 107/129/107
f 114/147/114 109/131/109 108/130/108
f 114/148/114 110/132/110 109/131/109
f 114/149/114 111/133/111 110/132/110
f 114/150/114 112/134/112 111/133/111
f 114/151/114 113/135/113 112/134/112
f 114/152/114 98/136/98 113/135/113
# 224 faces

